<?xml version="1.0" encoding="UTF-8" standalone="no"?>
<!-- Created with Inkscape (http://www.inkscape.org/) -->

<svg
   width="410mm"
   height="153.81mm"
   viewBox="0 0 410 153.80999"
   version="1.1"
   id="svg1"
   inkscape:version="1.4.4 (dcaf3e7d9e, 2026-05-05)"
   sodipodi:docname="small-logo.svg"
   xmlns:inkscape="http://www.inkscape.org/namespaces/inkscape"
   xmlns:sodipodi="http://sodipodi.sourceforge.net/DTD/sodipodi-0.dtd"
   xmlns="http://www.w3.org/2000/svg"
   xmlns:svg="http://www.w3.org/2000/svg">
  <sodipodi:namedview
     id="namedview1"
     pagecolor="#505050"
     bordercolor="#eeeeee"
     borderopacity="1"
     inkscape:showpageshadow="0"
     inkscape:pageopacity="0"
     inkscape:pagecheckerboard="0"
     inkscape:deskcolor="#505050"
     inkscape:document-units="mm"
     showguides="false"
     inkscape:zoom="0.18803356"
     inkscape:cx="-595.63834"
     inkscape:cy="925.36671"
     inkscape:window-width="1271"
     inkscape:window-height="693"
     inkscape:window-x="0"
     inkscape:window-y="0"
     inkscape:window-maximized="1"
     inkscape:current-layer="layer1" />
  <defs
     id="defs1" />
  <g
     inkscape:label="Layer 1"
     inkscape:groupmode="layer"
     id="layer1"
     style="display:inline">
    <rect
       style="fill:#1a1a1a;stroke-width:0.264583"
       id="rect3"
       width="172.62814"
       height="10.944723"
       x="122.11478"
       y="82.555794" />
    <rect
       style="fill:#1a1a1a;stroke-width:0.168658"
       id="rect3-3"
       width="70.145729"
       height="10.944723"
       x="52.955299"
       y="-154.3698"
       inkscape:transform-center-x="0.99497258"
       inkscape:transform-center-y="0.10108081"
       transform="rotate(90)" />
    <rect
       style="fill:#1a1a1a;stroke-width:0.140608"
       id="rect3-3-6"
       width="48.753769"
       height="10.944723"
       x="63.651279"
       y="-143.42506"
       inkscape:transform-center-x="0.99497258"
       inkscape:transform-center-y="0.070247291"
       transform="rotate(90)" />
    <rect
       style="fill:#1a1a1a;stroke-width:0.140608"
       id="rect3-3-6-2"
       width="48.753769"
       height="10.944723"
       x="63.651279"
       y="-283.94827"
       inkscape:transform-center-x="0.99497258"
       inkscape:transform-center-y="0.070247291"
       transform="rotate(90)" />
    <rect
       style="fill:#1a1a1a;stroke-width:0.116694"
       id="rect3-3-6-2-5"
       width="33.580402"
       height="10.944723"
       x="71.237961"
       y="-132.48035"
       inkscape:transform-center-x="0.99497258"
       inkscape:transform-center-y="0.048388285"
       transform="rotate(90)" />
    <rect
       style="fill:#1a1a1a;stroke-width:0.116694"
       id="rect3-3-6-2-5-9"
       width="33.580402"
       height="10.944723"
       x="71.237961"
       y="-294.89301"
       inkscape:transform-center-x="0.99497258"
       inkscape:transform-center-y="0.048388285"
       transform="rotate(90)" />
    <rect
       style="fill:#1a1a1a;stroke-width:0.168658"
       id="rect3-3-3"
       width="70.145729"
       height="10.944723"
       x="52.955299"
       y="-273.00357"
       inkscape:transform-center-x="0.99497258"
       inkscape:transform-center-y="0.10108081"
       transform="rotate(90)" />
    <path
       id="path5"
       style="fill:#1a1a1a;stroke-width:0.264999;stroke-dasharray:none"
       d="m 163.10955,36.041048 c -0.093,7.6e-5 -0.18603,2.61e-4 -0.27906,5.17e-4 -0.12004,3e-4 -0.24015,5.2e-4 -0.36018,0.0026 -0.10167,0.0019 -0.20355,0.004 -0.30489,0.01292 -0.0575,0.0051 -0.11557,0.01083 -0.1695,0.03256 -0.16487,0.05729 -0.33315,0.08835 -0.50798,0.08165 -0.0861,0.0029 -0.1725,0.0063 -0.25786,0.0186 -0.0856,0.0086 -0.16049,0.05724 -0.24392,0.07648 -0.12648,0.02285 -0.25008,0.03764 -0.37775,0.04754 -0.0853,0.0085 -0.15978,0.05772 -0.24288,0.077 -0.12471,0.02273 -0.24672,0.03753 -0.37259,0.04754 -0.0733,0.0054 -0.13732,0.0536 -0.21136,0.07441 -0.08,0.01892 -0.18827,0.04716 -0.26923,0.05116 0.0784,-0.04754 -0.20806,0.125227 -0.2434,0.125574 h -5.1e-4 -5.2e-4 l -5.2e-4,-5.17e-4 h -5.1e-4 -5.2e-4 v -5.16e-4 h -5.2e-4 v -5.17e-4 c -0.0476,0.02926 -0.21015,0.126669 -0.23254,0.12299 h -5.2e-4 c -0.0455,0.03031 -0.14024,0.09091 -0.17156,0.104903 -0.0177,0.01564 -0.0359,0.03268 -0.0506,0.04806 -0.006,0.007 -0.0229,0.02833 -0.03,0.03721 0.002,-0.0027 0.004,-0.0057 0.006,-0.0088 -0.0589,0.07033 -0.009,0.01915 -0.13074,0.135909 h -5.2e-4 v -5.17e-4 l 5.2e-4,-5.16e-4 h 5.1e-4 v -5.17e-4 l 5.2e-4,-5.17e-4 5.2e-4,-5.17e-4 v -5.17e-4 c 0.01,-0.0124 0.0196,-0.02482 0.0295,-0.03721 -0.0192,0.02243 -0.0376,0.04543 -0.0563,0.06821 -0.15742,0.155499 -0.0295,0.02154 -0.21188,0.212907 0.009,-0.01213 0.0364,-0.04795 0.0269,-0.03617 -0.0258,0.03199 -0.0469,0.05706 -0.0651,0.07751 a 15.795226,26.242462 0 0 0 -0.44906,6.216676 15.795226,26.242462 0 0 0 15.7949,26.242321 15.795226,26.242462 0 0 0 15.79542,-26.242321 15.795226,26.242462 0 0 0 -0.42272,-6.031157 c -0.10849,-0.09225 -0.20962,-0.201312 -0.32659,-0.27957 -0.008,-0.0011 -0.12624,-0.06963 -0.19741,-0.09715 -0.10877,-0.03269 -0.21352,-0.07793 -0.32039,-0.117306 -0.13387,-0.03309 -0.25729,-0.09096 -0.38189,-0.148828 -0.0808,-0.02452 -0.20344,-0.08496 -0.29611,-0.140043 h -5.1e-4 v 5.17e-4 h -5.2e-4 c -0.016,3.88e-4 -0.18861,-0.08589 -0.25786,-0.128675 l -5.2e-4,5.17e-4 h -5.2e-4 c -0.0208,0.0019 -0.17892,-0.08161 -0.2496,-0.125574 -0.0221,0.0026 -0.17106,-0.07628 -0.24856,-0.12454 l -5.2e-4,5.17e-4 c -2e-4,7.5e-5 -10e-4,4.55e-4 -10e-4,5.17e-4 -0.0153,0.003 -0.0792,-0.01636 -0.19482,-0.05323 -0.0755,-0.04418 -0.12116,-0.06083 -0.16743,-0.06873 -0.0804,-0.01232 -0.16165,-0.01509 -0.24288,-0.01809 -0.0179,-5e-4 -0.0363,-0.0058 -0.0537,-0.0016 h -5.1e-4 -5.2e-4 l -5.2e-4,5.17e-4 h -5.1e-4 -5.2e-4 -5.2e-4 v 5.17e-4 c 0.006,9.47e-4 0.0391,-4.31e-4 0.0517,0.0015 0.001,1.78e-4 0.002,3.88e-4 0.003,5.17e-4 h 5.2e-4 l 5.2e-4,5.17e-4 h 5.1e-4 l 5.2e-4,5.16e-4 v 5.17e-4 5.17e-4 h -5.2e-4 v 5.17e-4 c -0.008,0.0046 -0.0544,0.01165 -0.0724,0.01602 -0.0898,0.02191 -0.0357,0.0095 -0.14572,0.03256 -0.002,3.26e-4 -0.004,7.45e-4 -0.006,10e-4 -0.0136,0.0072 -0.0348,0.01829 -0.0563,0.02894 -0.01,0.0075 -0.0243,0.0179 -0.0403,0.02945 -0.0606,0.09784 -0.0836,0.125003 -0.14263,0.216008 -0.0581,0.09534 -0.12191,0.200664 -0.18759,0.286804 -0.001,0.02784 -0.0725,0.149009 -0.12299,0.225309 -0.0652,0.104086 -0.12185,0.208386 -0.18706,0.312643 -0.0593,0.07012 -0.10737,0.15097 -0.1571,0.22841 0.001,0.007 -0.20965,0.309935 -0.14831,0.224275 -0.0233,0.07995 -0.0665,0.15035 -0.11111,0.219625 0.004,0.04512 0.01,0.08991 0.0155,0.134876 0.0323,0.244097 0.10381,0.479372 0.1571,0.719336 0.0368,0.317936 0.0488,0.632763 0.0388,0.952913 -6e-5,0.24918 -1.5e-4,0.498061 -5.2e-4,0.747241 -5e-4,0.25139 -0.001,0.502589 -0.004,0.753959 -0.003,0.26298 -0.006,0.526449 -0.0207,0.789099 -0.0189,0.304342 -0.0461,0.609492 -0.12402,0.905372 -0.0203,0.0725 -0.0718,0.25197 -0.10025,0.31781 -1.2e-4,0.23924 -0.001,0.47855 -0.001,0.71779 -8e-4,0.25346 -0.002,0.50674 -0.006,0.76016 -0.005,0.27279 -0.0122,0.54577 -0.0382,0.81752 -0.0329,0.30252 -0.0802,0.60473 -0.185,0.89194 -0.005,0.0148 -0.009,0.0279 -0.0134,0.0387 -0.014,0.1502 -0.0306,0.31694 -0.0269,0.32867 v 5.1e-4 h 5.1e-4 v 5.2e-4 h 5.2e-4 v -5.2e-4 l 5.2e-4,-5.1e-4 c 0.003,-0.007 0.009,-0.0361 0.0186,-0.0961 -0.002,0.26093 -0.004,0.52156 -0.0124,0.78238 -0.0113,0.30162 -0.0272,0.60397 -0.076,0.90227 -0.052,0.29234 -0.11777,0.5838 -0.22945,0.85989 7.4e-4,-0.0132 0.004,-0.0477 0.004,-0.0517 v -5.2e-4 h -5.1e-4 v 5.2e-4 c -1.5e-4,5.2e-4 -3.1e-4,0.002 -5.2e-4,0.003 -0.0557,0.26055 -0.0857,0.52873 -0.20205,0.77308 -0.004,0.009 -0.007,0.0181 -0.0109,0.0274 -0.0174,0.12378 -0.0788,0.32421 -0.0718,0.36845 -0.0613,0.26847 -0.16803,0.62174 -0.28887,0.80512 0.006,-0.0271 0.0246,-0.10837 0.0171,-0.0811 -0.0951,0.3365 -0.18679,0.6744 -0.38396,0.96996 -0.13012,0.20432 -0.28234,0.39493 -0.3793,0.61857 -0.097,0.17461 -0.24682,0.42494 -0.32608,0.55811 0.009,-0.0278 0.0374,-0.1105 0.0269,-0.0832 -0.0911,0.23549 -0.18492,0.46944 -0.3235,0.67902 -0.008,0.12032 -0.0224,0.2468 -0.046,0.37879 -0.10909,0.61145 -0.32357,1.19612 -0.48214,1.79524 -0.0443,0.35736 -0.26124,0.66089 -0.35553,1.00097 -0.007,0.0248 -0.0118,0.0504 -0.0212,0.0744 -0.1305,0.33303 -0.0831,0.21601 -0.23151,0.48214 -0.005,0.01 -0.0427,0.076 -0.045,0.0868 l -5.2e-4,5.1e-4 v 5.2e-4 h 5.2e-4 v 5.2e-4 h 5.1e-4 v -5.2e-4 h 5.2e-4 l 5.2e-4,-5.2e-4 c 0.003,-0.003 0.008,-0.009 0.0155,-0.0202 -0.0946,0.30251 -0.28755,0.5727 -0.46612,0.83044 -0.003,0.009 -0.42254,0.43723 -0.43409,0.46974 v 5.2e-4 h -5.1e-4 v 5.1e-4 5.2e-4 h 5.1e-4 l 5.2e-4,5.2e-4 5.2e-4,-5.2e-4 h 5.1e-4 v -5.2e-4 h 5.2e-4 l 5.2e-4,-5.1e-4 h 5.2e-4 l 5.1e-4,-5.2e-4 h 5.2e-4 c -0.0468,0.0426 -0.10816,0.11229 -0.1602,0.17415 -0.14876,0.2687 -0.23021,0.37649 -0.42633,0.63872 -0.11617,0.11641 -0.20858,0.24668 -0.4346,0.45837 -0.0203,0.019 0.0423,-0.0358 0.0636,-0.0537 -0.45648,0.47767 -0.0643,0.0697 -0.447,0.46612 -0.0343,0.0374 -0.34283,0.33776 -0.65681,0.53381 -0.016,0.007 -0.0321,0.0148 -0.0481,0.0222 -0.17839,0.12689 -0.33996,0.21305 -0.54002,0.30593 -0.13447,0.0368 -0.27602,0.10755 -0.41857,0.13539 -0.0237,0.0112 -0.0478,0.0221 -0.0713,0.0336 -0.22915,0.12494 -0.46917,0.24607 -0.72037,0.34107 -0.0548,0.017 -0.11002,0.0322 -0.16434,0.0506 -0.1712,0.0579 0.11829,-0.0365 0.11059,-0.0315 -0.16083,0.0953 -0.32124,0.16514 -0.49454,0.23564 -0.0963,0.0234 -0.5207,0.15981 -0.73071,0.18035 -0.21181,0.0952 -0.44788,0.14614 -0.67231,0.19172 -0.28857,0.0519 -0.58191,0.0671 -0.87436,0.078 -0.41388,0.0306 -0.79943,-0.11106 -1.17099,-0.27078 -0.14487,-0.0682 -0.28666,-0.1409 -0.42426,-0.22066 -0.45131,0.0843 -1.03829,-0.11838 -1.61282,-0.75603 -0.36933,-0.4099 -0.8248,-0.71991 -1.25367,-1.0604 -0.11833,-0.12316 -0.25321,-0.21487 -0.39378,-0.2992 -0.22314,-0.0533 -0.43947,-0.12979 -0.63975,-0.24908 -0.1963,-0.12012 -0.3511,-0.17401 -0.74414,-0.46768 -0.22418,-0.25502 -0.40009,-0.52025 -0.52245,-0.82165 -0.15216,-0.17592 -0.27416,-0.35578 -0.37362,-0.56482 0.007,0.005 0.0124,0.008 0.0155,0.009 h 5.1e-4 5.2e-4 5.2e-4 5.1e-4 5.2e-4 l 5.2e-4,-5.2e-4 v -5.1e-4 -5.2e-4 -5.2e-4 -5.1e-4 c -0.003,-0.0101 -0.0222,-0.0381 -0.0475,-0.0713 0.004,0.0102 0.009,0.0213 0.0129,0.031 -0.005,-0.0106 -0.01,-0.0203 -0.0145,-0.031 -0.0154,-0.0202 -0.0332,-0.0425 -0.0506,-0.0651 9.7e-4,0.002 0.002,0.005 0.002,0.006 v 5.2e-4 5.2e-4 5.1e-4 5.2e-4 h -5.2e-4 -5.2e-4 v -5.2e-4 h -5.1e-4 c -0.001,-7.9e-4 -0.003,-0.003 -0.005,-0.005 -0.0537,-0.0605 -0.10527,-0.12266 -0.15813,-0.18396 -0.10434,-0.1277 -0.18416,-0.27161 -0.25167,-0.42117 -0.0365,-0.0532 -0.0712,-0.10747 -0.10697,-0.16123 -0.0745,-0.12551 -0.14467,-0.2574 -0.19585,-0.39532 -0.0263,-0.0419 -0.0515,-0.0845 -0.0775,-0.12661 -0.0929,-0.22635 -0.2814,-0.51176 -0.30179,-0.77773 -0.08,-0.17252 -0.1585,-0.40258 -0.18862,-0.49248 -0.0555,-0.0287 -0.23258,-0.67914 -0.24443,-0.70486 l -5.2e-4,-5.2e-4 -5.1e-4,5.2e-4 c 1.8e-4,0.004 0.006,0.0282 0.0176,0.077 -0.11622,-0.15737 -0.24048,-0.54343 -0.30386,-0.80977 l -5.2e-4,-5.2e-4 -5.1e-4,-5.2e-4 c -0.0222,-0.0288 -0.0557,-0.37699 -0.0734,-0.58652 -0.10745,-0.21211 -0.15092,-0.4719 -0.19534,-0.70125 -0.0162,-0.0133 -0.0439,-0.34439 -0.0589,-0.55087 -0.10646,-0.20814 -0.14742,-0.46916 -0.19069,-0.69402 -0.0224,-0.14685 -0.0232,-0.14209 -0.0372,-0.27802 -0.0117,-0.0281 -0.0206,-0.058 -0.032,-0.0863 -0.12597,-0.29812 -0.18077,-0.61755 -0.21807,-0.93689 -0.028,-0.27354 -0.0357,-0.54794 -0.0413,-0.82269 -0.0161,-0.29943 -0.005,-0.59308 0.0279,-0.88935 -0.0332,-0.0501 -0.0676,-0.1062 -0.10284,-0.1695 -0.10363,-0.18619 -0.21297,-0.37399 -0.24701,-0.58911 -0.09,-0.30609 -0.20603,-0.61219 -0.17518,-0.93948 0.006,-0.2761 0.0132,-0.55248 0.0419,-0.82734 0.0383,-0.32239 0.0949,-0.64405 0.22169,-0.94516 0.0161,-0.0404 0.0297,-0.0813 0.0486,-0.12041 v -5.1e-4 h 5.1e-4 v -5.2e-4 c 0.0157,-0.12618 0.0307,-0.25239 0.061,-0.37621 0.0264,-0.1147 0.0556,-0.22814 0.0879,-0.34106 -0.19717,-0.13083 -0.34726,-0.41221 -0.34364,-0.84336 1.7e-4,-0.0205 3.4e-4,-0.0411 5.1e-4,-0.0615 0.001,-0.13149 0.003,-0.26298 0.0103,-0.3943 0.01,-0.15216 0.0236,-0.30475 0.0625,-0.45268 0.0102,-0.0364 0.0354,-0.12589 0.0496,-0.15865 1e-5,-0.119198 4.7e-4,-0.238402 5.2e-4,-0.357602 6e-5,-0.12479 -3.6e-4,-0.249864 0,-0.374654 4e-4,-0.12688 0.001,-0.253479 0.004,-0.380339 0.003,-0.13758 0.007,-0.275408 0.0207,-0.412378 0.019,-0.16124 0.0468,-0.322232 0.11162,-0.472322 6.3e-4,-0.002 0.001,-0.0032 0.002,-0.0052 0.002,-0.061 0.0497,-0.153271 0.0429,-0.199471 0.0177,-0.0712 0.0421,-0.15275 0.0708,-0.22841 -0.006,-0.13166 -0.003,-0.264742 0.005,-0.398942 0.007,-0.2871 0.0152,-0.573995 0.0496,-0.859379 0.0319,-0.224763 0.0766,-0.446211 0.14831,-0.658358 -0.001,-0.0044 -0.003,-0.0086 -0.004,-0.01292 -0.0477,-0.164978 -0.16835,-0.304922 -0.20257,-0.47594 -0.098,-0.265877 -0.22523,-0.52002 -0.36484,-0.766361 -0.13903,-0.245329 -0.18941,-0.465983 -0.17725,-0.647506 z m 3.28093,22.107695 c 0.005,0.0105 0.009,0.0212 0.014,0.0315 h -5.1e-4 c -0.003,-0.008 -0.008,-0.0192 -0.0134,-0.0315 z m 13.87719,0.94981 c -0.0211,0.018 -0.0343,0.0283 -0.0408,0.032 0.0155,-0.014 0.0294,-0.0251 0.0408,-0.032 z" />
    <path
       id="path5-1"
       style="display:inline;fill:#1a1a1a;stroke-width:0.153039;stroke-dasharray:none"
       d="m 188.48784,108.15758 -5.1e-4,5.2e-4 c -0.0702,3e-5 -0.14009,4.1e-4 -0.21033,5.2e-4 -0.0906,1.3e-4 -0.18171,-2.6e-4 -0.27233,5.1e-4 -0.0768,8.8e-4 -0.15344,0.002 -0.22996,0.006 -0.0434,0.002 -0.0874,0.005 -0.12816,0.0145 -0.12448,0.0253 -0.25144,0.0392 -0.38344,0.0362 -0.065,0.001 -0.13037,0.003 -0.19482,0.008 -0.0646,0.004 -0.12098,0.0251 -0.18397,0.0336 -0.0955,0.0101 -0.18885,0.0168 -0.28525,0.0212 -0.0644,0.004 -0.12071,0.0256 -0.18345,0.0341 -0.0942,0.01 -0.18609,0.0168 -0.28112,0.0212 -0.0553,0.002 -0.10378,0.0234 -0.15968,0.0326 -0.0604,0.008 -0.14196,0.0209 -0.20309,0.0227 0.0592,-0.021 -0.15729,0.0551 -0.18397,0.0553 h -5.2e-4 -5.1e-4 -5.2e-4 -5.2e-4 v -5.2e-4 h -5.1e-4 c -0.0359,0.013 -0.15828,0.056 -0.17519,0.0543 h -5.1e-4 c -0.0344,0.0134 -0.10606,0.0404 -0.12971,0.0465 -0.0134,0.007 -0.0271,0.0143 -0.0382,0.0212 -0.004,0.003 -0.0146,0.01 -0.0207,0.0145 -0.0373,0.0263 -0.009,0.008 -0.0951,0.0574 h -5.2e-4 v 5.1e-4 h -5.1e-4 c -0.006,0.004 -0.0128,0.008 -0.0191,0.0124 -0.11886,0.0687 -0.0225,0.01 -0.1602,0.094 0.007,-0.005 0.0278,-0.0212 0.0207,-0.016 -0.0195,0.0141 -0.0359,0.0251 -0.0496,0.0341 a 11.925666,11.592177 0 0 0 -0.339,2.74609 11.925666,11.592177 0 0 0 11.92537,11.59206 11.925666,11.592177 0 0 0 11.92588,-11.59206 11.925666,11.592177 0 0 0 -0.31884,-2.66392 c -0.0819,-0.0408 -0.1587,-0.0889 -0.24701,-0.12351 -0.006,-4.4e-4 -0.0951,-0.0307 -0.14883,-0.0429 -0.0821,-0.0144 -0.16116,-0.0343 -0.24185,-0.0517 -0.10107,-0.0146 -0.19428,-0.0406 -0.28835,-0.0661 -0.0155,-0.003 -0.0329,-0.006 -0.0517,-0.0109 -0.0182,1.3e-4 -0.0366,5.4e-4 -0.0548,10e-4 -0.0254,0.001 -0.0508,0.002 -0.076,0.005 -0.0305,0.004 -0.0599,0.0126 -0.0899,0.0196 -0.0396,0.005 -0.0785,0.006 -0.11834,0.005 -0.03,1e-4 -0.0599,2e-5 -0.0899,5.2e-4 -0.0255,0 -0.0511,5.8e-4 -0.0765,0.003 -0.0148,10e-4 -0.0295,0.002 -0.0434,0.008 -0.0426,0.0142 -0.0863,0.0211 -0.13126,0.0191 -0.0287,0 -0.0572,0.001 -0.0858,0.002 -0.0228,0.002 -0.0458,0.003 -0.0682,0.008 -0.0384,0.008 -0.0754,0.0237 -0.11523,0.0233 -0.0167,0.001 -0.0333,0.002 -0.0496,0.006 -0.0345,0.0109 -0.0687,0.027 -0.10594,0.0263 -0.0203,0.002 -0.0408,0.003 -0.0605,0.009 -0.0464,0.0125 -0.09,0.0358 -0.13849,0.0408 -0.0473,0.01 -0.0941,0.0214 -0.14056,0.0341 h -5.2e-4 l -5.1e-4,5.1e-4 c -0.0344,0.0146 -0.066,0.0354 -0.10232,0.0455 -0.0103,0.004 -0.0356,0.0186 -0.0579,0.0274 -0.006,0.004 -0.0113,0.008 -0.015,0.0103 -0.003,0.002 -0.005,0.004 -0.008,0.006 -0.008,0.0119 -0.0152,0.0249 -0.0279,0.0289 l -5.2e-4,5.2e-4 c -0.006,0.008 -0.009,0.0114 -0.0202,0.0243 l -5.2e-4,5.1e-4 v 5.2e-4 c -0.004,0.007 -0.009,0.0146 -0.0134,0.0212 l -5.1e-4,5.2e-4 -5.2e-4,5.1e-4 v 5.2e-4 c -0.008,0.0182 -0.0178,0.0362 -0.0305,0.0517 -0.007,0.008 -0.0129,0.0142 -0.0196,0.0222 h -5.2e-4 c -0.002,0.003 -0.005,0.005 -0.007,0.008 l -5.1e-4,5.1e-4 v 5.2e-4 l -5.2e-4,5.2e-4 c -8e-5,3.3e-4 1e-4,5.3e-4 0,0.001 l -5.2e-4,5.2e-4 c -7.1e-4,0.002 -0.001,0.003 -0.003,0.006 l -5.1e-4,5.2e-4 h -5.2e-4 -5.2e-4 -5.1e-4 v 5.1e-4 h 5.1e-4 v 5.2e-4 h -5.1e-4 c -0.0119,0.0225 -0.0368,0.0688 -0.0496,0.0755 l -5.2e-4,5.1e-4 -5.2e-4,5.2e-4 h -5.2e-4 -5.1e-4 -5.2e-4 c -0.009,0.0125 -0.0278,0.0378 -0.0279,0.0403 -0.0174,0.0284 -0.0358,0.0571 -0.0568,0.0827 -0.0166,0.0272 -0.0341,0.0538 -0.0558,0.0775 -0.007,0.007 -0.0144,0.014 -0.0217,0.0212 -0.008,0.0119 -0.0153,0.0252 -0.0279,0.0295 0.002,-0.003 0.007,-0.01 0.008,-0.0114 h -5.2e-4 c -0.004,0.005 -0.006,0.008 -0.008,0.0114 v 5.1e-4 c -0.006,0.008 -0.009,0.0114 -0.0202,0.0243 l -5.1e-4,5.2e-4 c -0.004,0.007 -0.009,0.0145 -0.0134,0.0212 v 5.1e-4 l -5.2e-4,5.2e-4 h -4.9e-4 v 5.2e-4 c -0.008,0.0175 -0.017,0.0344 -0.0289,0.0496 -0.006,0.007 -0.0108,0.0144 -0.0165,0.0212 l -5.1e-4,5.2e-4 v 5.2e-4 h -5.2e-4 c -0.004,0.007 -0.008,0.0154 -0.0129,0.0217 3e-4,-0.002 9.7e-4,-0.004 0.001,-0.005 v -5.2e-4 h -5.2e-4 c -6.7e-4,0.002 -0.003,0.011 -0.009,0.0243 v 5.2e-4 5.2e-4 l -5.1e-4,5.1e-4 c -9e-5,2.5e-4 -4.2e-4,0.001 -5.2e-4,0.002 -8e-5,2.5e-4 5e-5,7.9e-4 0,10e-4 l -5.2e-4,5.1e-4 c 0.0199,0.12168 0.0257,0.24257 0.0191,0.36536 -4e-5,0.11008 -2.4e-4,0.22013 -5.1e-4,0.33021 -3.8e-4,0.11104 -7.3e-4,0.22176 -0.003,0.33279 -0.002,0.11617 -0.005,0.2328 -0.0155,0.34882 -0.0143,0.13443 -0.0347,0.26876 -0.0935,0.39946 -0.0153,0.032 -0.0545,0.11147 -0.076,0.14056 -9e-5,0.10568 -5.2e-4,0.21161 -5.2e-4,0.31729 -6e-4,0.11197 -10e-4,0.22344 -0.005,0.33538 -0.004,0.1205 -0.009,0.24118 -0.0289,0.36122 -0.0248,0.13364 -0.0604,0.26742 -0.13953,0.39429 -0.004,0.007 -0.007,0.0121 -0.0103,0.017 -0.0105,0.0663 -0.0229,0.14004 -0.0202,0.14522 v 5.1e-4 h 5.2e-4 v -5.1e-4 h 5.2e-4 c 0.002,-0.003 0.007,-0.0159 0.0139,-0.0424 -0.001,0.11526 -0.003,0.22999 -0.009,0.3452 -0.008,0.13324 -0.0206,0.26717 -0.0574,0.39894 -0.0393,0.12914 -0.0888,0.25786 -0.17312,0.37982 5.5e-4,-0.006 0.003,-0.021 0.003,-0.0227 v -5.2e-4 h -5.2e-4 v 5.2e-4 5.1e-4 h -5.1e-4 c -0.042,0.11509 -0.0646,0.23365 -0.15245,0.34158 -0.003,0.004 -0.006,0.008 -0.008,0.0124 -0.0129,0.0539 -0.0579,0.14145 -0.0543,0.16278 -0.0463,0.1186 -0.12683,0.27453 -0.21807,0.35553 0.003,-0.008 0.0105,-0.0277 0.0129,-0.0346 -0.0718,0.14864 -0.14104,0.29783 -0.28991,0.42839 -0.0982,0.0902 -0.21308,0.17407 -0.28628,0.27286 -0.0733,0.0771 -0.18614,0.18818 -0.24598,0.24701 0.005,-0.009 0.0166,-0.0306 0.0202,-0.0372 -0.0688,0.10402 -0.1398,0.20766 -0.24443,0.30024 -0.006,0.0532 -0.0168,0.10913 -0.0346,0.16743 -0.0824,0.2701 -0.24408,0.52807 -0.36381,0.79272 -0.0335,0.15786 -0.19752,0.29213 -0.26871,0.44235 -0.005,0.011 -0.009,0.022 -0.016,0.0326 -0.0985,0.14711 -0.0626,0.0958 -0.17467,0.21342 -0.004,0.004 -0.0309,0.0322 -0.0341,0.0382 v 5.2e-4 h 5.2e-4 5.1e-4 l 5.2e-4,-5.2e-4 c 0.002,-0.001 0.006,-0.004 0.0114,-0.009 -0.0714,0.13363 -0.21709,0.25304 -0.35192,0.3669 -0.003,0.004 -0.31891,0.19286 -0.32763,0.20722 v 5.2e-4 c -0.035,0.0188 -0.0793,0.0498 -0.11782,0.0765 -0.11231,0.11869 -0.17387,0.16632 -0.32194,0.28216 -0.0877,0.0514 -0.1575,0.10906 -0.32815,0.20257 -0.0153,0.008 0.032,-0.0159 0.0481,-0.0238 -0.34465,0.211 -0.0485,0.0306 -0.33744,0.20567 -0.0259,0.0165 -0.25904,0.14956 -0.4961,0.23616 -0.0121,0.003 -0.0241,0.007 -0.0362,0.0103 -0.13469,0.056 -0.25668,0.0943 -0.40773,0.13539 -0.10153,0.0163 -0.20862,0.0482 -0.31626,0.0605 -0.0179,0.005 -0.036,0.0102 -0.0537,0.015 -0.17301,0.0552 -0.35396,0.10841 -0.54363,0.15037 -0.0413,0.008 -0.083,0.0145 -0.12403,0.0227 -0.12926,0.0256 0.089,-0.0164 0.0832,-0.0139 -0.12143,0.0421 -0.24225,0.0727 -0.3731,0.10387 -0.0727,0.0103 -0.39335,0.0705 -0.5519,0.0796 -0.15993,0.0421 -0.33802,0.0648 -0.50747,0.0847 -0.21788,0.0229 -0.43962,0.0297 -0.66042,0.0346 -0.31248,0.0135 -0.60365,-0.0488 -0.88418,-0.11937 -0.10939,-0.0301 -0.21599,-0.0629 -0.31988,-0.0982 -0.34075,0.0372 -0.78423,-0.0522 -1.21802,-0.33383 -0.27884,-0.18107 -0.62238,-0.31829 -0.94619,-0.4687 -0.0893,-0.0544 -0.19153,-0.095 -0.29766,-0.13229 -0.16847,-0.0235 -0.33195,-0.0568 -0.48317,-0.10956 -0.14821,-0.0531 -0.26497,-0.077 -0.56172,-0.2067 -0.16926,-0.11265 -0.30191,-0.23014 -0.3943,-0.36327 -0.11487,-0.0777 -0.20706,-0.15674 -0.28215,-0.24908 0.005,0.002 0.009,0.003 0.0114,0.004 h 5.2e-4 5.2e-4 5.1e-4 5.2e-4 5.2e-4 v -5.2e-4 -5.2e-4 l -5.2e-4,-5.1e-4 c -0.004,-0.005 -0.0172,-0.0172 -0.0351,-0.031 0.003,0.005 0.007,0.009 0.01,0.0145 -0.004,-0.005 -0.007,-0.009 -0.0108,-0.0145 -0.0113,-0.009 -0.0244,-0.0177 -0.0372,-0.0274 v 5.2e-4 l 5.2e-4,5.2e-4 v 5.1e-4 5.2e-4 5.2e-4 5.1e-4 h -5.2e-4 -5.2e-4 -5.2e-4 c -3.7e-4,-1.7e-4 -0.001,-7.6e-4 -0.002,-10e-4 h -5.1e-4 l -5.2e-4,-5.2e-4 -5.2e-4,-5.1e-4 c -0.0405,-0.0267 -0.0795,-0.0541 -0.11937,-0.0811 -0.0788,-0.0564 -0.1392,-0.11997 -0.19017,-0.18603 -0.0276,-0.0235 -0.0536,-0.0471 -0.0806,-0.0708 -0.0563,-0.0554 -0.10915,-0.11374 -0.14779,-0.17466 -0.0198,-0.0185 -0.0393,-0.0372 -0.0589,-0.0558 -0.0701,-0.1 -0.21199,-0.22615 -0.22738,-0.34364 -0.0604,-0.0762 -0.11988,-0.17785 -0.14263,-0.21756 -0.0419,-0.0127 -0.17553,-0.30025 -0.18448,-0.31161 h -5.2e-4 -5.1e-4 c 1.3e-4,0.002 0.005,0.0126 0.0134,0.0341 -0.0877,-0.0695 -0.18159,-0.23995 -0.22945,-0.3576 l -5.1e-4,-5.2e-4 -5.2e-4,-5.2e-4 h -5.2e-4 v -5.2e-4 l -5.1e-4,-5.1e-4 v -5.2e-4 c -0.0168,-0.0206 -0.0413,-0.16768 -0.0543,-0.25735 -0.0811,-0.0937 -0.11374,-0.20875 -0.14728,-0.31006 h -5.2e-4 v -5.1e-4 h -5.2e-4 v -5.2e-4 l -5.1e-4,-5.2e-4 c -0.0124,-0.0178 -0.0321,-0.15491 -0.0429,-0.24184 -0.0804,-0.0919 -0.11151,-0.20711 -0.14418,-0.30644 -0.0169,-0.0649 -0.0173,-0.063 -0.0279,-0.12299 -0.009,-0.0124 -0.0157,-0.0252 -0.0243,-0.0377 -0.0951,-0.13169 -0.13668,-0.27286 -0.16485,-0.41392 -0.0212,-0.12083 -0.0268,-0.24193 -0.031,-0.36329 -0.0121,-0.13227 -0.004,-0.26239 0.0212,-0.39326 -0.025,-0.0221 -0.0509,-0.0469 -0.0775,-0.0749 -0.0782,-0.0823 -0.16085,-0.16491 -0.18655,-0.25993 -0.0679,-0.13521 -0.15558,-0.27039 -0.13229,-0.41496 0.004,-0.12196 0.01,-0.24395 0.0315,-0.36536 0.0289,-0.14241 0.0717,-0.28453 0.16743,-0.41754 0.0122,-0.0179 0.0224,-0.0354 0.0367,-0.0527 v -5.2e-4 h 5.2e-4 c 0.0119,-0.0557 0.0231,-0.1117 0.046,-0.1664 0.0199,-0.0507 0.0418,-0.10049 0.0661,-0.15037 -0.14887,-0.0578 -0.26215,-0.18213 -0.25942,-0.37259 1.3e-4,-0.009 3.9e-4,-0.0188 5.2e-4,-0.0279 0.001,-0.0581 0.002,-0.11615 0.008,-0.17415 0.007,-0.0672 0.0176,-0.13464 0.047,-0.19998 0.008,-0.0161 0.027,-0.0558 0.0377,-0.0703 1e-5,-0.0526 -4e-5,-0.10497 0,-0.15762 5e-5,-0.0551 -2.7e-4,-0.11076 0,-0.16588 3e-4,-0.056 0.001,-0.11191 0.003,-0.16795 0.002,-0.0608 0.005,-0.1214 0.0155,-0.1819 0.0144,-0.0712 0.0353,-0.14247 0.0842,-0.20877 l 5.2e-4,-5.2e-4 v -5.1e-4 l 5.1e-4,-5.2e-4 h 5.2e-4 v -5.2e-4 c 0.002,-0.0269 0.0377,-0.0674 0.0326,-0.0879 0.0133,-0.0314 0.0315,-0.0674 0.0532,-0.10077 -0.004,-0.0582 -0.002,-0.11745 0.004,-0.17673 0.005,-0.12682 0.0112,-0.25324 0.0372,-0.3793 0.0241,-0.0993 0.058,-0.19723 0.11214,-0.29094 -9.8e-4,-0.002 -0.002,-0.004 -0.003,-0.006 -0.036,-0.0729 -0.12713,-0.13479 -0.15296,-0.21033 -0.074,-0.11744 -0.17003,-0.22967 -0.27544,-0.33848 -0.10497,-0.10837 -0.14303,-0.20611 -0.13384,-0.28629 z m 2.48564,9.77822 c 5.3e-4,7.5e-4 0.001,0.002 0.002,0.002 h -5.2e-4 c -3.7e-4,-5e-4 -5.9e-4,-10e-4 -0.001,-0.002 z" />
    <path
       id="path5-1-6"
       style="display:inline;fill:#1a1a1a;stroke-width:0.153039;stroke-dasharray:none"
       d="m 226.72995,108.26869 v 5.1e-4 c -0.002,1.3e-4 -0.004,2.6e-4 -0.005,5.2e-4 h -5.1e-4 l -5.2e-4,5.2e-4 c 0.005,3.2e-4 0.0251,1e-4 0.0357,5.1e-4 -0.01,-5.8e-4 -0.0199,-0.002 -0.0295,-0.002 z m 0.0367,0.003 -0.001,5.1e-4 v 5.2e-4 l -0.002,5.2e-4 5.2e-4,5.2e-4 h 5.1e-4 v 5.1e-4 5.2e-4 c -0.006,0.002 -0.0413,0.005 -0.0548,0.007 -0.0678,0.01 -0.027,0.004 -0.11007,0.0145 -0.001,1.5e-4 -0.003,3.8e-4 -0.004,5.1e-4 -0.0103,0.003 -0.0267,0.008 -0.0429,0.0129 -0.007,0.003 -0.0184,0.008 -0.0305,0.0129 -0.0457,0.0432 -0.0629,0.0549 -0.10748,0.0951 -0.0438,0.0421 -0.092,0.089 -0.1416,0.12712 v 5.2e-4 l -5.1e-4,5.1e-4 c -0.004,0.0144 -0.0555,0.0655 -0.0925,0.0982 -0.0492,0.046 -0.0918,0.092 -0.14107,0.13797 -0.0448,0.031 -0.0813,0.0671 -0.11886,0.10129 7.5e-4,0.003 -0.15793,0.13656 -0.11162,0.0987 -0.0176,0.0353 -0.0501,0.067 -0.0837,0.0971 0.003,0.0199 0.007,0.0395 0.0119,0.0594 0.0243,0.10782 0.0781,0.21181 0.11834,0.31781 0.0278,0.14044 0.0381,0.27974 0.0305,0.42116 -4e-5,0.11008 -2.4e-4,0.22014 -5.2e-4,0.33022 -3.7e-4,0.11104 8.5e-4,0.22176 -0.003,0.33279 -0.002,0.11617 -0.005,0.2328 -0.0155,0.34882 -0.0143,0.13443 -0.0347,0.26876 -0.0935,0.39946 -0.0153,0.032 -0.054,0.11147 -0.0755,0.14056 -8e-5,0.10568 -0.001,0.21161 -0.001,0.31729 -6.1e-4,0.11197 -0.001,0.22344 -0.005,0.33538 -0.004,0.1205 -0.009,0.24118 -0.0289,0.36122 -0.0248,0.13364 -0.0609,0.26742 -0.14004,0.39429 -0.004,0.007 -0.007,0.0121 -0.01,0.0171 -0.0105,0.0663 -0.0235,0.14003 -0.0207,0.14521 h 5.2e-4 v 5.2e-4 h 5.1e-4 v -5.2e-4 h 5.2e-4 c 0.002,-0.003 0.007,-0.0159 0.014,-0.0424 -0.001,0.11526 -0.003,0.22999 -0.009,0.3452 -0.008,0.13324 -0.0212,0.26717 -0.0579,0.39894 -0.0392,0.12914 -0.0893,0.25786 -0.17363,0.37982 5.6e-4,-0.006 0.003,-0.021 0.003,-0.0227 v -5.2e-4 h -5.2e-4 v 5.2e-4 5.1e-4 c -0.042,0.11509 -0.0651,0.23365 -0.15296,0.34158 -0.003,0.004 -0.005,0.008 -0.008,0.0124 -0.0129,0.0538 -0.0589,0.14144 -0.0553,0.16278 -0.0463,0.1186 -0.12683,0.27453 -0.21807,0.35553 0.002,-0.008 0.009,-0.0267 0.0124,-0.0346 -0.0717,0.14851 -0.14065,0.29744 -0.28939,0.42788 -0.0982,0.0902 -0.21307,0.17406 -0.28628,0.27285 -0.0733,0.0771 -0.18666,0.18818 -0.2465,0.24701 0.005,-0.009 0.0182,-0.0306 0.0217,-0.0372 -0.0688,0.10402 -0.13978,0.20766 -0.24442,0.30024 -0.006,0.0532 -0.0163,0.10913 -0.0341,0.16743 -0.0824,0.2701 -0.2446,0.52806 -0.36432,0.79271 -0.0335,0.15786 -0.19701,0.29213 -0.2682,0.44235 -0.005,0.011 -0.009,0.0227 -0.016,0.0331 -0.0985,0.14711 -0.0626,0.0958 -0.17467,0.21342 -0.004,0.004 -0.0308,0.0317 -0.0341,0.0377 h -5.2e-4 v 5.2e-4 h 5.2e-4 5.1e-4 l 5.2e-4,-5.2e-4 c 0.002,-0.001 0.006,-0.004 0.0119,-0.009 -0.0714,0.13363 -0.2171,0.25304 -0.35192,0.3669 -0.003,0.004 -0.31891,0.19286 -0.32763,0.20722 v 5.2e-4 h 5.2e-4 5.1e-4 5.2e-4 5.2e-4 v 5.2e-4 c -0.0352,0.0188 -0.081,0.0494 -0.11989,0.0765 -0.11231,0.11869 -0.17387,0.16631 -0.32195,0.28215 -0.0877,0.0514 -0.15749,0.10906 -0.32814,0.20257 -0.0153,0.008 0.0319,-0.0164 0.0481,-0.0243 -0.34465,0.211 -0.0485,0.0306 -0.33745,0.20567 -0.0259,0.0165 -0.25903,0.14956 -0.49609,0.23616 -0.0121,0.003 -0.0241,0.007 -0.0362,0.0103 -0.13469,0.056 -0.25667,0.0938 -0.40772,0.13488 -0.10153,0.0163 -0.20863,0.0478 -0.31626,0.0599 -0.0179,0.005 -0.0362,0.0102 -0.0537,0.015 -0.17301,0.0552 -0.35396,0.10842 -0.54363,0.15038 -0.0413,0.008 -0.0836,0.0145 -0.12454,0.0227 -0.12926,0.0256 0.0895,-0.0168 0.0837,-0.0145 -0.12144,0.0421 -0.24278,0.0727 -0.37362,0.10387 -0.0727,0.0103 -0.39283,0.0705 -0.55139,0.0796 -0.15992,0.0421 -0.33802,0.0649 -0.50746,0.0847 -0.21788,0.0229 -0.43962,0.0297 -0.66042,0.0346 -0.31249,0.0135 -0.60366,-0.0488 -0.88419,-0.11937 -0.10938,-0.0301 -0.21649,-0.0624 -0.32039,-0.0977 -0.34074,0.0372 -0.78372,-0.0522 -1.2175,-0.33383 -0.27885,-0.18107 -0.62289,-0.31829 -0.94671,-0.4687 -0.0893,-0.0544 -0.19101,-0.095 -0.29714,-0.1323 -0.16848,-0.0235 -0.33195,-0.0568 -0.48317,-0.10955 -0.14821,-0.0531 -0.26497,-0.077 -0.56173,-0.20671 -0.16926,-0.11265 -0.3019,-0.23013 -0.39429,-0.36326 -0.11488,-0.0777 -0.20705,-0.15674 -0.28215,-0.24908 0.004,0.002 0.008,0.004 0.0109,0.004 h 5.2e-4 5.1e-4 5.2e-4 5.2e-4 5.2e-4 5.1e-4 v -5.1e-4 -5.2e-4 l -5.1e-4,-5.2e-4 c -0.003,-0.005 -0.017,-0.0169 -0.0346,-0.0305 v 5.2e-4 5.2e-4 h -5.1e-4 l -5.2e-4,-5.2e-4 -5.2e-4,-5.2e-4 c -0.011,-0.009 -0.0241,-0.0178 -0.0367,-0.0274 v 5.2e-4 5.2e-4 5.2e-4 h 5.2e-4 v 5.1e-4 5.2e-4 h -5.2e-4 -5.2e-4 -5.1e-4 c -7.5e-4,-3.5e-4 -0.002,-4.5e-4 -0.004,-0.002 -0.0405,-0.0267 -0.0795,-0.0536 -0.11937,-0.0806 -0.0788,-0.0564 -0.1392,-0.11997 -0.19017,-0.18603 -0.0276,-0.0235 -0.0536,-0.0471 -0.0806,-0.0708 -0.0563,-0.0554 -0.10916,-0.11375 -0.1478,-0.17467 -0.0198,-0.0185 -0.0393,-0.0372 -0.0589,-0.0558 -0.0701,-0.1 -0.2125,-0.22615 -0.22789,-0.34364 -0.0604,-0.0762 -0.11937,-0.17785 -0.14211,-0.21756 -0.0419,-0.0127 -0.17554,-0.30025 -0.18449,-0.31161 h -5.1e-4 -5.2e-4 c 1.4e-4,0.002 0.004,0.0126 0.0134,0.0341 -0.0877,-0.0695 -0.1821,-0.23996 -0.22996,-0.35761 v -5.1e-4 h -5.2e-4 l -0.001,-5.2e-4 -5.1e-4,-5.2e-4 c -0.0168,-0.0206 -0.0414,-0.16816 -0.0543,-0.25786 -0.0811,-0.0937 -0.11374,-0.20875 -0.14728,-0.31006 h -5.2e-4 v -5.2e-4 h -5.1e-4 v -5.1e-4 -5.2e-4 l -5.2e-4,-5.2e-4 v -5.1e-4 l -5.2e-4,-5.2e-4 c -0.0124,-0.0211 -0.0318,-0.15521 -0.0424,-0.24081 -0.0804,-0.0919 -0.11151,-0.20711 -0.14418,-0.30644 -0.0169,-0.0649 -0.0173,-0.063 -0.0279,-0.12299 -0.009,-0.0124 -0.0157,-0.0252 -0.0243,-0.0377 -0.0951,-0.13169 -0.13669,-0.27287 -0.16485,-0.41393 -0.0211,-0.12083 -0.0268,-0.24192 -0.031,-0.36328 -0.009,-0.0953 -0.007,-0.18954 0.004,-0.2837 -0.005,-0.0225 -0.009,-0.0483 -0.01,-0.076 -2.2e-4,-0.006 -9.1e-4,-0.0105 -0.001,-0.0165 -7.4e-4,-0.0152 -0.002,-0.0303 -0.003,-0.0455 -0.0153,-0.0145 -0.0307,-0.0299 -0.0465,-0.0465 -0.0782,-0.0823 -0.16086,-0.16491 -0.18656,-0.25993 -0.0679,-0.13521 -0.15559,-0.27039 -0.13229,-0.41496 0.004,-0.12196 0.01,-0.24395 0.031,-0.36536 0.0185,-0.0908 0.0423,-0.1815 0.0822,-0.26975 -0.004,-0.0145 -0.0127,-0.028 -0.0165,-0.0429 -0.007,-0.0292 -0.0111,-0.0581 -0.0171,-0.0873 -0.0117,-0.0442 -0.0358,-0.0853 -0.0388,-0.13178 -0.0143,-0.0757 -0.0337,-0.15087 -0.0398,-0.22789 -0.0112,-0.14125 0.0478,-0.22412 0.1173,-0.24236 -0.0193,-0.0464 -0.0298,-0.0992 -0.0289,-0.15865 1.3e-4,-0.009 3.9e-4,-0.0183 5.2e-4,-0.0274 0.001,-0.0581 0.002,-0.11615 0.008,-0.17415 0.007,-0.0672 0.0176,-0.13464 0.047,-0.19998 0.008,-0.0161 0.0259,-0.0558 0.0367,-0.0703 0,-0.0526 4.8e-4,-0.10497 5.2e-4,-0.15762 4e-5,-0.0551 -2.7e-4,-0.11076 0,-0.16588 3e-4,-0.056 5.8e-4,-0.11191 0.003,-0.16795 0.002,-0.0608 0.005,-0.1214 0.0155,-0.1819 0.0138,-0.0681 0.0335,-0.13668 0.078,-0.2005 v -0.0165 -0.093 -0.0961 -0.0868 c -0.002,-0.007 -0.003,-0.0137 -0.005,-0.0207 -0.012,-0.0794 -0.0153,-0.16008 -0.0243,-0.23978 h -0.002 c -0.005,-0.0423 -0.004,-0.0796 0.003,-0.1111 -5.1e-4,-0.009 -2.4e-4,-0.0193 -5.2e-4,-0.0274 -0.0131,-0.025 -0.0189,-0.0586 -0.0238,-0.0858 -0.002,-0.0155 -0.0137,-0.0432 -0.0217,-0.0749 -0.002,-0.004 -0.003,-0.007 -0.004,-0.0103 -0.003,-0.005 -0.007,-0.0131 -0.0139,-0.0264 -0.016,-0.0298 -0.0322,-0.0593 -0.0476,-0.0894 -0.0125,-0.0245 -0.0248,-0.0492 -0.0372,-0.0739 h -5.2e-4 v -5.2e-4 h -5.2e-4 -5.1e-4 v -5.2e-4 -5.2e-4 l -5.2e-4,-5.1e-4 c -0.0104,-0.0106 -0.0298,-0.0527 -0.0388,-0.0729 h -5.2e-4 -5.1e-4 v -5.1e-4 c -3.1e-4,-0.001 -8.5e-4,-0.003 -0.001,-0.004 l -5.1e-4,-5.1e-4 v -5.2e-4 l -5.2e-4,-5.2e-4 v -5.1e-4 -5.2e-4 l -5.2e-4,-5.2e-4 v -5.1e-4 l -5.1e-4,-5.2e-4 v -5.2e-4 -5.1e-4 l -5.2e-4,-5.2e-4 c -0.002,-0.002 -0.004,-0.005 -0.006,-0.007 h -5.2e-4 v -5.1e-4 c -0.006,-0.008 -0.0126,-0.0142 -0.0186,-0.0222 h -5.2e-4 -5.1e-4 v -5.2e-4 c -0.0132,-0.0117 -0.0321,-0.063 -0.0346,-0.0667 1.8e-4,0.002 0.001,0.006 0.004,0.0165 -0.0224,-0.0204 -0.0475,-0.0514 -0.0615,-0.0692 -0.0167,-0.0151 -0.033,-0.0308 -0.0501,-0.045 l -5.2e-4,-5.2e-4 c -0.002,-0.002 -0.004,-0.003 -0.006,-0.005 -0.0322,-0.0105 -0.0642,-0.0212 -0.0966,-0.031 -0.05,-0.0158 -0.10071,-0.0296 -0.15141,-0.0429 -0.053,-0.014 -0.10558,-0.0282 -0.15968,-0.0382 -0.0572,-0.0125 -0.11588,-0.0196 -0.17208,-0.0372 -0.0439,-0.0111 -0.088,-0.0219 -0.13281,-0.0279 -0.0319,-0.005 -0.0681,-0.0145 -0.0904,-0.0155 -0.031,0 -0.0619,-10e-6 -0.093,0 -0.031,2e-5 -0.062,-9e-5 -0.093,0 -0.0308,9e-5 -0.0617,1.1e-4 -0.0925,5.2e-4 -0.0306,10e-4 -0.0614,0.002 -0.092,0.004 -0.0346,0.003 -0.0694,0.006 -0.10336,0.0134 -0.0481,0.009 -0.096,0.0164 -0.14521,0.0134 h -0.0956 -0.093 -0.0935 -0.093 -0.0935 c -0.0311,1e-5 -0.062,-2e-5 -0.093,0 -0.0308,3e-5 -0.0617,3.6e-4 -0.0925,5.2e-4 -0.0297,0 -0.0597,3.2e-4 -0.0894,0.001 -0.0254,0.001 -0.0508,0.002 -0.076,0.005 -0.0305,0.004 -0.0599,0.0126 -0.0899,0.0196 -0.0396,0.005 -0.0785,0.006 -0.11834,0.005 -0.03,1e-4 -0.0599,2e-5 -0.0899,5.2e-4 -0.0255,0 -0.0511,0.001 -0.0765,0.003 -0.0148,0.001 -0.0295,0.002 -0.0434,0.008 -0.0426,0.0142 -0.0863,0.0211 -0.13126,0.0191 -0.0287,0 -0.0572,6.1e-4 -0.0858,0.002 -0.0228,0.002 -0.0458,0.003 -0.0682,0.008 -0.0384,0.008 -0.0754,0.0239 -0.11524,0.0233 -0.0167,0.001 -0.0333,0.002 -0.0496,0.006 -0.0345,0.0109 -0.0687,0.0265 -0.10594,0.0258 -0.0203,0.002 -0.0408,0.003 -0.0605,0.009 -0.0464,0.0125 -0.09,0.0358 -0.13849,0.0408 -0.008,0.002 -0.0169,0.003 -0.0253,0.005 -0.007,0.004 -0.0137,0.009 -0.0217,0.0134 0.002,-0.002 0.006,-0.005 0.0103,-0.008 -0.0149,0.0106 -0.0275,0.0189 -0.0388,0.0264 a 11.925666,11.592177 0 0 0 -0.339,2.74609 11.925666,11.592177 0 0 0 11.92537,11.59204 11.925666,11.592177 0 0 0 11.92589,-11.59204 11.925666,11.592177 0 0 0 -0.31884,-2.66392 c -0.0819,-0.0408 -0.15871,-0.0889 -0.24702,-0.12351 -0.006,-4.4e-4 -0.0951,-0.0307 -0.14882,-0.0429 -0.0821,-0.0144 -0.16116,-0.0343 -0.24185,-0.0517 -0.10107,-0.0146 -0.19428,-0.0405 -0.28835,-0.0662 -0.061,-0.0108 -0.15379,-0.0371 -0.22376,-0.0615 h -5.2e-4 c -0.0121,1.6e-4 -0.14253,-0.0379 -0.19482,-0.0568 h -5.2e-4 -5.1e-4 c -0.0157,8.9e-4 -0.13475,-0.0358 -0.18811,-0.0553 -0.0167,0.001 -0.12907,-0.0335 -0.18758,-0.0548 h -5.2e-4 -5.1e-4 -5.2e-4 c -0.0115,0.001 -0.06,-0.007 -0.14728,-0.0232 -0.057,-0.0195 -0.0912,-0.0271 -0.12609,-0.0305 -0.0607,-0.005 -0.12212,-0.007 -0.18345,-0.008 -5.1e-4,0 -0.001,2e-5 -0.002,0 z m -14.96601,9.65419 c 0.004,0.005 0.007,0.009 0.0103,0.0139 h -5.2e-4 c -0.003,-0.004 -0.006,-0.008 -0.01,-0.0139 z" />
    <path
       id="path5-4"
       style="fill:#1a1a1a;stroke-width:0.264999;stroke-dasharray:none"
       d="m 230.31216,36.041048 c -0.093,7.6e-5 -0.18603,2.61e-4 -0.27905,5.17e-4 -0.12005,3e-4 -0.24016,5.2e-4 -0.36019,0.0026 -0.10167,0.0019 -0.20355,0.004 -0.30489,0.01292 -0.0575,0.0051 -0.11557,0.01083 -0.1695,0.03256 -0.16487,0.05729 -0.33314,0.08835 -0.50797,0.08165 -0.0861,0.0029 -0.17251,0.0063 -0.25787,0.0186 -0.0856,0.0086 -0.16048,0.05724 -0.24391,0.07648 -0.12648,0.02285 -0.25009,0.03764 -0.37776,0.04754 -0.0853,0.0085 -0.15978,0.05772 -0.24288,0.077 -0.12471,0.02273 -0.24671,0.03753 -0.37258,0.04754 -0.0733,0.0054 -0.13732,0.0536 -0.21136,0.07441 -0.08,0.01892 -0.18827,0.04716 -0.26923,0.05116 0.0784,-0.04754 -0.20807,0.125227 -0.2434,0.125574 h -5.2e-4 -5.1e-4 l -5.2e-4,-5.17e-4 h -5.2e-4 -5.1e-4 v -5.16e-4 h -5.2e-4 v -5.17e-4 c -0.0476,0.02926 -0.21016,0.126669 -0.23255,0.12299 h -5.1e-4 c -0.0455,0.03031 -0.14025,0.09091 -0.17157,0.104903 -0.0177,0.01564 -0.0359,0.03268 -0.0506,0.04806 -0.006,0.007 -0.0229,0.02833 -0.03,0.03721 0.002,-0.0027 0.004,-0.0057 0.006,-0.0088 -0.0589,0.07033 -0.009,0.01915 -0.13074,0.135909 h -5.2e-4 v -5.17e-4 l 5.2e-4,-5.16e-4 h 5.1e-4 v -5.17e-4 l 5.2e-4,-5.17e-4 5.2e-4,-5.17e-4 v -5.17e-4 c 0.01,-0.0124 0.0197,-0.02482 0.0295,-0.03721 -0.0192,0.02243 -0.0376,0.04543 -0.0563,0.06821 -0.15742,0.155499 -0.0295,0.02154 -0.21188,0.212907 0.009,-0.01213 0.0364,-0.04795 0.0269,-0.03617 -0.0258,0.03199 -0.0469,0.05706 -0.0651,0.07751 a 15.795226,26.242462 0 0 0 -0.44907,6.216676 15.795226,26.242462 0 0 0 15.7949,26.242321 15.795226,26.242462 0 0 0 15.79542,-26.242321 15.795226,26.242462 0 0 0 -0.42271,-6.031157 c -0.10849,-0.09225 -0.20963,-0.201312 -0.3266,-0.27957 -0.008,-0.0011 -0.12623,-0.06963 -0.1974,-0.09715 -0.10878,-0.03269 -0.21352,-0.07793 -0.32039,-0.117306 -0.13387,-0.03309 -0.25729,-0.09096 -0.38189,-0.148828 -0.0808,-0.02452 -0.20344,-0.08496 -0.29611,-0.140043 h -5.1e-4 v 5.17e-4 h -5.2e-4 c -0.016,3.88e-4 -0.18862,-0.08589 -0.25787,-0.128675 l -5.1e-4,5.17e-4 h -5.2e-4 c -0.0208,0.0019 -0.17892,-0.08161 -0.2496,-0.125574 -0.0221,0.0026 -0.17106,-0.07628 -0.24856,-0.12454 l -5.2e-4,5.17e-4 -5.1e-4,5.17e-4 c -1.8e-4,5.6e-5 -10e-4,-4.6e-5 -0.002,0 -0.0153,0.003 -0.0792,-0.01636 -0.19482,-0.05323 -0.0755,-0.04418 -0.12117,-0.06083 -0.16744,-0.06873 -0.0804,-0.01232 -0.16165,-0.01509 -0.24288,-0.01809 -0.0179,-5e-4 -0.0363,-0.0058 -0.0537,-0.0016 h -5.2e-4 l -5.1e-4,5.17e-4 c -2e-4,4.3e-5 -7.9e-4,-1.9e-5 -0.001,0 h -5.1e-4 -5.2e-4 -5.2e-4 v 5.17e-4 c 0.006,9.47e-4 0.0391,-4.31e-4 0.0517,0.0015 0.001,1.78e-4 0.002,3.88e-4 0.003,5.17e-4 h 5.2e-4 l 5.1e-4,5.17e-4 h 5.2e-4 l 5.2e-4,5.16e-4 v 5.17e-4 5.17e-4 h -5.2e-4 v 5.17e-4 c -0.008,0.0046 -0.0543,0.01165 -0.0724,0.01602 -0.0898,0.02191 -0.0357,0.0095 -0.14572,0.03256 -0.002,3.26e-4 -0.004,7.45e-4 -0.006,10e-4 -0.0136,0.0072 -0.0348,0.01829 -0.0563,0.02894 -0.01,0.0075 -0.0243,0.0179 -0.0403,0.02945 -0.0606,0.09784 -0.0836,0.125003 -0.14263,0.216008 -0.058,0.09534 -0.1219,0.200664 -0.18758,0.286804 -0.001,0.02784 -0.0725,0.149009 -0.12299,0.225309 -0.0652,0.104086 -0.12186,0.208386 -0.18707,0.312643 -0.0593,0.07012 -0.10737,0.15097 -0.1571,0.22841 0.001,0.007 -0.20965,0.309935 -0.14831,0.224275 -0.0233,0.07995 -0.0666,0.15035 -0.1111,0.219625 0.004,0.04512 0.01,0.08991 0.0155,0.134876 0.0323,0.244097 0.10381,0.479372 0.1571,0.719336 0.0368,0.317932 0.0493,0.632765 0.0393,0.952913 -6e-5,0.24918 -1.6e-4,0.498061 -5.2e-4,0.747241 -5e-4,0.25139 -0.001,0.502589 -0.004,0.753959 -0.003,0.26298 -0.006,0.526449 -0.0207,0.789099 -0.0189,0.304342 -0.0461,0.609492 -0.12402,0.905372 -0.0203,0.0725 -0.0718,0.25197 -0.10026,0.31781 -1.1e-4,0.23924 -0.001,0.47855 -0.001,0.71779 -8e-4,0.25346 -0.002,0.50674 -0.006,0.76016 -0.005,0.27279 -0.0122,0.54577 -0.0382,0.81752 -0.0329,0.30252 -0.0802,0.60473 -0.185,0.89194 -0.005,0.0148 -0.009,0.0279 -0.0134,0.0387 -0.014,0.1502 -0.0306,0.31694 -0.0269,0.32867 v 5.1e-4 h 5.2e-4 v 5.2e-4 h 5.1e-4 v -5.2e-4 l 5.2e-4,-5.1e-4 c 0.003,-0.007 0.009,-0.0361 0.0186,-0.0961 -0.002,0.26093 -0.004,0.52156 -0.0124,0.78238 -0.0113,0.30162 -0.0272,0.60397 -0.076,0.90227 -0.052,0.29234 -0.11777,0.5838 -0.22945,0.85989 7.4e-4,-0.0132 0.004,-0.0477 0.004,-0.0517 v -5.2e-4 h -5.2e-4 v 5.2e-4 c -1.5e-4,5.2e-4 -3.1e-4,0.002 -5.2e-4,0.003 -0.0556,0.26055 -0.0857,0.52873 -0.20205,0.77308 -0.004,0.009 -0.007,0.0181 -0.0109,0.0274 -0.0174,0.12378 -0.0788,0.32421 -0.0718,0.36845 -0.0613,0.26847 -0.16803,0.62174 -0.28888,0.80512 0.006,-0.0271 0.0246,-0.10837 0.0171,-0.0811 -0.0951,0.3365 -0.18679,0.6744 -0.38396,0.96996 -0.13012,0.20432 -0.28234,0.39493 -0.3793,0.61857 -0.097,0.17461 -0.24682,0.42494 -0.32608,0.55811 0.009,-0.0278 0.0374,-0.1105 0.0269,-0.0832 -0.0911,0.23549 -0.18491,0.46944 -0.32349,0.67902 -0.007,0.12032 -0.0224,0.2468 -0.046,0.37879 -0.10909,0.61145 -0.32357,1.19612 -0.48214,1.79524 -0.0443,0.35736 -0.26124,0.66089 -0.35553,1.00097 -0.007,0.0248 -0.0118,0.0504 -0.0212,0.0744 -0.13049,0.33303 -0.0831,0.21601 -0.23151,0.48214 -0.005,0.01 -0.0427,0.076 -0.045,0.0868 l -5.1e-4,5.1e-4 v 5.2e-4 h 5.1e-4 v 5.2e-4 h 5.2e-4 v -5.2e-4 h 5.2e-4 l 5.1e-4,-5.2e-4 c 0.003,-0.003 0.008,-0.009 0.0155,-0.0202 -0.0946,0.30251 -0.28756,0.5727 -0.46613,0.83044 -0.003,0.009 -0.42253,0.43723 -0.43408,0.46974 v 5.2e-4 h -5.1e-4 v 5.1e-4 5.2e-4 h 5.1e-4 l 5.2e-4,5.2e-4 5.2e-4,-5.2e-4 h 5.1e-4 v -5.2e-4 h 5.2e-4 l 5.2e-4,-5.1e-4 h 5.1e-4 l 5.2e-4,-5.2e-4 h 5.2e-4 c -0.0468,0.0426 -0.10817,0.11229 -0.1602,0.17415 -0.14876,0.2687 -0.23021,0.37649 -0.42633,0.63872 -0.11618,0.11641 -0.20859,0.24668 -0.4346,0.45837 -0.0203,0.019 0.0423,-0.0358 0.0636,-0.0537 -0.45649,0.47767 -0.0643,0.0697 -0.447,0.46612 -0.0342,0.0374 -0.34283,0.33776 -0.65681,0.53381 -0.016,0.007 -0.0321,0.0148 -0.0481,0.0222 -0.1784,0.12689 -0.33996,0.21305 -0.54001,0.30593 -0.13448,0.0368 -0.27602,0.10755 -0.41858,0.13539 -0.0237,0.0112 -0.0478,0.0221 -0.0713,0.0336 -0.22915,0.12494 -0.46916,0.24607 -0.72037,0.34107 -0.0548,0.017 -0.11001,0.0322 -0.16433,0.0506 -0.1712,0.0579 0.11829,-0.0365 0.11059,-0.0315 -0.16084,0.0953 -0.32123,0.16514 -0.49454,0.23564 -0.0963,0.0234 -0.5207,0.15981 -0.73071,0.18035 -0.21182,0.0952 -0.44788,0.14614 -0.67231,0.19172 -0.28858,0.0519 -0.5819,0.0671 -0.87436,0.078 -0.41387,0.0306 -0.79944,-0.11106 -1.17099,-0.27078 -0.14488,-0.0682 -0.28666,-0.1409 -0.42427,-0.22066 -0.45131,0.0843 -1.03828,-0.11838 -1.61282,-0.75603 -0.36933,-0.4099 -0.82479,-0.71991 -1.25367,-1.0604 -0.11833,-0.12316 -0.25321,-0.21487 -0.39377,-0.2992 -0.22315,-0.0533 -0.43947,-0.12979 -0.63976,-0.24908 -0.1963,-0.12012 -0.35109,-0.17401 -0.74414,-0.46768 -0.22418,-0.25502 -0.40007,-0.52025 -0.52244,-0.82165 -0.15215,-0.17592 -0.27417,-0.35578 -0.37363,-0.56482 0.007,0.005 0.0124,0.008 0.0155,0.009 h 5.1e-4 5.2e-4 5.2e-4 5.1e-4 5.2e-4 l 5.2e-4,-5.2e-4 v -5.1e-4 -5.2e-4 -5.2e-4 -5.1e-4 c -0.003,-0.0101 -0.0222,-0.0381 -0.0475,-0.0713 0.004,0.0102 0.009,0.0213 0.0129,0.031 -0.005,-0.0106 -0.01,-0.0203 -0.0145,-0.031 -0.0154,-0.0202 -0.0332,-0.0425 -0.0506,-0.0651 7.4e-4,10e-4 0.002,0.004 0.002,0.006 v 5.1e-4 5.2e-4 5.2e-4 5.1e-4 5.2e-4 h -5.2e-4 -5.1e-4 v -5.2e-4 h -5.2e-4 c -0.001,-7.9e-4 -0.003,-0.003 -0.005,-0.005 -0.0537,-0.0605 -0.10527,-0.12266 -0.15813,-0.18396 -0.10433,-0.1277 -0.18416,-0.27161 -0.25166,-0.42117 -0.0365,-0.0532 -0.0712,-0.10747 -0.10697,-0.16123 -0.0745,-0.12551 -0.14468,-0.2574 -0.19586,-0.39532 -0.0263,-0.0419 -0.0515,-0.0845 -0.0775,-0.12661 -0.0929,-0.22635 -0.2814,-0.51176 -0.30179,-0.77773 -0.08,-0.17252 -0.15851,-0.40258 -0.18862,-0.49248 -0.0555,-0.0287 -0.23259,-0.67914 -0.24443,-0.70486 l -5.2e-4,-5.2e-4 -5.1e-4,5.2e-4 c 1.8e-4,0.004 0.006,0.0282 0.0181,0.077 -0.11621,-0.15737 -0.24047,-0.54343 -0.30385,-0.80977 l -5.2e-4,-5.2e-4 -5.2e-4,-5.2e-4 c -0.0222,-0.0288 -0.0562,-0.37699 -0.0739,-0.58652 -0.10744,-0.21211 -0.15092,-0.4719 -0.19534,-0.70125 -0.0162,-0.0133 -0.0439,-0.34439 -0.0589,-0.55087 -0.10645,-0.20814 -0.1469,-0.46916 -0.19017,-0.69402 -0.0224,-0.14685 -0.0232,-0.14209 -0.0372,-0.27802 -0.0117,-0.0281 -0.0206,-0.058 -0.032,-0.0863 -0.12598,-0.29812 -0.18077,-0.61755 -0.21807,-0.93689 -0.028,-0.27354 -0.0357,-0.54794 -0.0413,-0.82269 -0.0161,-0.29943 -0.005,-0.59308 0.0279,-0.88935 -0.0332,-0.0501 -0.0676,-0.1062 -0.10283,-0.1695 -0.10363,-0.18619 -0.21298,-0.37399 -0.24702,-0.58911 -0.09,-0.30609 -0.20603,-0.61219 -0.17518,-0.93948 0.006,-0.2761 0.0132,-0.55248 0.0419,-0.82734 0.0383,-0.32239 0.0949,-0.64405 0.22169,-0.94516 0.0162,-0.0404 0.0297,-0.0813 0.0486,-0.12041 v -5.1e-4 h 5.2e-4 v -5.2e-4 c 0.0157,-0.12618 0.0307,-0.25239 0.061,-0.37621 0.0264,-0.1147 0.0556,-0.22814 0.0879,-0.34106 -0.19717,-0.13083 -0.34727,-0.41221 -0.34365,-0.84336 1.7e-4,-0.0205 3.5e-4,-0.0411 5.2e-4,-0.0615 0.001,-0.13149 0.003,-0.26298 0.0103,-0.3943 0.01,-0.15216 0.0236,-0.30475 0.0625,-0.45268 0.0102,-0.0364 0.0354,-0.12589 0.0496,-0.15865 10e-6,-0.119198 4.6e-4,-0.238402 5.2e-4,-0.357602 6e-5,-0.12479 -3.6e-4,-0.249864 0,-0.374654 4e-4,-0.12688 6.1e-4,-0.253479 0.004,-0.380339 0.003,-0.13758 0.007,-0.275408 0.0207,-0.412378 0.019,-0.16124 0.0468,-0.322232 0.11162,-0.472322 l 5.1e-4,-5.17e-4 c 2.9e-4,-6.68e-4 7.2e-4,-0.002 10e-4,-0.0026 l 5.1e-4,-5.17e-4 v -5.17e-4 -5.16e-4 -5.17e-4 c 0.002,-0.061 0.0497,-0.153271 0.0429,-0.199471 0.0177,-0.0712 0.0421,-0.15275 0.0708,-0.22841 -0.005,-0.131658 -0.003,-0.264742 0.005,-0.398942 0.007,-0.2871 0.0151,-0.573995 0.0496,-0.859379 0.0319,-0.224763 0.0766,-0.446211 0.14831,-0.658358 -0.001,-0.0044 -0.003,-0.0086 -0.004,-0.01292 -0.0478,-0.164978 -0.16836,-0.304922 -0.20258,-0.47594 -0.098,-0.265877 -0.22522,-0.52002 -0.36483,-0.766361 -0.13903,-0.245329 -0.18941,-0.465983 -0.17725,-0.647506 z m 3.28094,22.107695 c 0.005,0.0105 0.009,0.0212 0.014,0.0315 h -5.2e-4 c -0.003,-0.008 -0.008,-0.0192 -0.0134,-0.0315 z m 13.87719,0.94981 c -0.0211,0.018 -0.0343,0.0283 -0.0408,0.032 0.0155,-0.014 0.0294,-0.0251 0.0408,-0.032 z" />
    <ellipse
       style="fill:#1a1a1a;stroke-width:0.264999;stroke-dasharray:none"
       id="path50"
       cx="137.95271"
       cy="82.951218"
       rx="5.4723616"
       ry="5.0769415" />
    <ellipse
       style="fill:#f45d80;fill-opacity:1;stroke-width:0.264999;stroke-dasharray:none"
       id="path51-0"
       cx="276.87204"
       cy="93.500511"
       rx="9.7618036"
       ry="7.7390881" />
    <ellipse
       style="display:inline;fill:#f45d80;fill-opacity:1;stroke-width:0.264999;stroke-dasharray:none"
       id="path51-0-6"
       cx="137.95271"
       cy="94.495491"
       rx="9.7618036"
       ry="7.7390881" />
  </g>
</svg>
